<?xml version="1.0" encoding="UTF-8"?>
<svg width="512px" height="512px" viewBox="0 0 512 512" version="1.1" xmlns="http://www.w3.org/2000/svg" xmlns:xlink="http://www.w3.org/1999/xlink">
    <title>Artboard</title>
    <g id="Artboard" stroke="none" stroke-width="1" fill="none" fill-rule="evenodd">
        <rect fill="#00336E" x="0" y="0" width="512" height="512"></rect>
        <g id="MdiMapSearchOutline" transform="translate(65.000000, 55.000000)" fill="#FFFFFF" fill-rule="nonzero">
            <path d="M327.856793,0 C333.03023,0 337.224129,4.2071419 337.224129,9.39691445 L337.224129,184.367461 C326.358019,174.030856 313.805787,165.573633 299.754782,159.747546 L299.754782,50.743338 L243.55076,72.5441795 L243.55076,150.350631 C230.436488,151.666199 217.69691,154.86115 206.081412,159.747546 L206.081412,72.7321178 L131.142717,46.4207574 L131.142,158 L131,158 L131,305.335 L112.408043,298.821879 L12.3648847,337.725105 L9.36733693,338.28892 C4.1938996,338.28892 0,334.081778 0,328.892006 L0,44.7293128 C0,40.4067321 2.81020108,37.0238429 6.74448259,35.7082749 L112.408043,0 L224.816086,39.4670407 L324.859245,0.563814867 L327.856793,0 Z M93.6733693,46.0448808 L37.4693477,65.026648 L37.4693477,287.73352 L93.6733693,265.932679 L93.6733693,46.0448808 Z" id="Combined-Shape"></path>
        </g>
        <path d="M315,237 C362.496488,237 401,275.503512 401,323 C401,370.496488 362.496488,409 315,409 C296.351216,409 279.088809,403.064212 264.999038,392.978894 L265,482 L229,482 L229,323 L229.011522,321.577833 C229.77097,274.737292 267.978476,237 315,237 Z" id="Oval-2" fill="#FFFFFF"></path>
        <circle id="Oval" fill="#00336E" cx="315" cy="322.5" r="51.5"></circle>
    </g>
</svg>